# xmcd CD database file
#
# Track frame offsets:
#	150
#	15414
#	33068
#	50397
#	73411
#	89682
#	104539
#	122705
#	142347
#	165228
#	185052
#	203826
#
# Disc length: 2947 seconds
#
# Revision: 0
# Processed by: cddbd v1.5.1PL2 Copyright (c) Steve Scherf et al.
# Submitted via: CDex 1.51
#
DISCID=ab0b810c
DTITLE=BLACK CATS  - BLACK CATS Best Sellection DISC2
DYEAR=1900
DGENRE=Other
TTITLE0=抱きしめてクレージーナイト
TTITLE1=ギャンブルタウン
TTITLE2=俺の中にあるある日のこと
TTITLE3=Good bye boy-俺のラストシーン-
TTITLE4=チェッ!チェッ!チェッ!
TTITLE5=ボニー&クライドの未来
TTITLE6=レイラ
TTITLE7=優しさの情景(シーン)
TTITLE8=勝利者
TTITLE9=チャイナブルーの夜
TTITLE10=野イチゴの想い出
TTITLE11=1979年 19才
EXTD=
EXTT0=
EXTT1=
EXTT2=
EXTT3=
EXTT4=
EXTT5=
EXTT6=
EXTT7=
EXTT8=
EXTT9=
EXTT10=
EXTT11=
PLAYORDER=
